<svg width="229" height="40" viewBox="0 0 229 40" fill="none" xmlns="http://www.w3.org/2000/svg">
<g clip-path="url(#clip0_2243_66)">
<path d="M2.07812 11.2727H7.73011L11.6179 20.7472H11.8139L15.7017 11.2727H21.3537V28H16.9105V18.3295H16.7798L13.0554 27.8693H10.3764L6.65199 18.2642H6.52131V28H2.07812V11.2727ZM29.5826 28.2287C28.2431 28.2287 27.0887 27.9728 26.1195 27.4609C25.1557 26.9437 24.4125 26.2031 23.8897 25.2393C23.3725 24.2701 23.1138 23.1103 23.1138 21.7599C23.1138 20.464 23.3752 19.3314 23.8979 18.3622C24.4206 17.393 25.1584 16.6388 26.1113 16.0998C27.0642 15.5607 28.1886 15.2912 29.4846 15.2912C30.432 15.2912 31.2896 15.4382 32.0574 15.7322C32.8251 16.0263 33.4812 16.4537 34.0257 17.0146C34.5703 17.57 34.9895 18.2451 35.2836 19.0401C35.5776 19.8351 35.7246 20.7308 35.7246 21.7273V22.7727H24.5186V20.2898H31.5755C31.57 19.9304 31.4775 19.6146 31.2978 19.3423C31.1235 19.0646 30.8867 18.8496 30.5872 18.6971C30.2931 18.5392 29.9583 18.4602 29.5826 18.4602C29.2177 18.4602 28.8829 18.5392 28.5779 18.6971C28.273 18.8496 28.028 19.0619 27.8429 19.3342C27.6632 19.6064 27.5679 19.925 27.557 20.2898V22.9688C27.557 23.3717 27.6414 23.7311 27.8102 24.0469C27.979 24.3627 28.2213 24.6104 28.5371 24.7901C28.8529 24.9698 29.2341 25.0597 29.6806 25.0597C29.9909 25.0597 30.2741 25.0161 30.53 24.929C30.7914 24.8419 31.0146 24.7166 31.1998 24.5533C31.3849 24.3845 31.521 24.183 31.6081 23.9489H35.7246C35.583 24.8201 35.2482 25.5769 34.72 26.2195C34.1918 26.8565 33.4921 27.352 32.6209 27.706C31.7551 28.0545 30.7424 28.2287 29.5826 28.2287ZM42.0729 11.2727V28H37.5644V11.2727H42.0729ZM48.8786 11.2727V28H44.37V11.2727H48.8786ZM57.2197 28.2287C55.8585 28.2287 54.6932 27.9592 53.724 27.4201C52.7548 26.8756 52.0115 26.1187 51.4942 25.1495C50.9769 24.1748 50.7183 23.045 50.7183 21.7599C50.7183 20.4749 50.9769 19.3478 51.4942 18.3786C52.0115 17.4039 52.7548 16.647 53.724 16.108C54.6932 15.5634 55.8585 15.2912 57.2197 15.2912C58.581 15.2912 59.7462 15.5634 60.7155 16.108C61.6847 16.647 62.4279 17.4039 62.9452 18.3786C63.4625 19.3478 63.7211 20.4749 63.7211 21.7599C63.7211 23.045 63.4625 24.1748 62.9452 25.1495C62.4279 26.1187 61.6847 26.8756 60.7155 27.4201C59.7462 27.9592 58.581 28.2287 57.2197 28.2287ZM57.2524 24.8963C57.6336 24.8963 57.963 24.7683 58.2407 24.5124C58.5184 24.2565 58.7335 23.8917 58.8859 23.418C59.0384 22.9442 59.1146 22.3807 59.1146 21.7273C59.1146 21.0684 59.0384 20.5049 58.8859 20.0366C58.7335 19.5629 58.5184 19.198 58.2407 18.9421C57.963 18.6862 57.6336 18.5582 57.2524 18.5582C56.8495 18.5582 56.5037 18.6862 56.2151 18.9421C55.9265 19.198 55.706 19.5629 55.5535 20.0366C55.4011 20.5049 55.3248 21.0684 55.3248 21.7273C55.3248 22.3807 55.4011 22.9442 55.5535 23.418C55.706 23.8917 55.9265 24.2565 56.2151 24.5124C56.5037 24.7683 56.8495 24.8963 57.2524 24.8963ZM67.5477 28L64.4113 15.4545H68.9198L70.3573 23.0994H70.4553L72.0562 15.4545H76.434L78.1002 23.0341H78.1982L79.5704 15.4545H84.0789L80.9426 28H76.0747L74.3105 21.2699H74.1798L72.4156 28H67.5477ZM94.509 11.2727V28H89.9678V11.2727H94.509ZM96.7265 28V15.4545H101.006V17.8395H101.137C101.398 17.0554 101.845 16.4347 102.476 15.9773C103.108 15.5199 103.86 15.2912 104.731 15.2912C105.613 15.2912 106.372 15.5253 107.009 15.9936C107.647 16.4564 108.03 17.0717 108.161 17.8395H108.292C108.504 17.0717 108.956 16.4564 109.648 15.9936C110.339 15.5253 111.15 15.2912 112.082 15.2912C113.285 15.2912 114.26 15.6778 115.006 16.451C115.757 17.2242 116.133 18.2533 116.133 19.5384V28H111.624V20.6818C111.624 20.1319 111.485 19.7017 111.208 19.3913C110.93 19.0755 110.557 18.9176 110.089 18.9176C109.626 18.9176 109.258 19.0755 108.986 19.3913C108.719 19.7017 108.586 20.1319 108.586 20.6818V28H104.273V20.6818C104.273 20.1319 104.134 19.7017 103.857 19.3913C103.579 19.0755 103.206 18.9176 102.738 18.9176C102.427 18.9176 102.161 18.9884 101.937 19.13C101.714 19.2715 101.54 19.4757 101.415 19.7425C101.295 20.0039 101.235 20.317 101.235 20.6818V28H96.7265ZM118.356 28V15.4545H122.636V17.8395H122.767C123.028 17.0554 123.475 16.4347 124.106 15.9773C124.738 15.5199 125.489 15.2912 126.361 15.2912C127.243 15.2912 128.002 15.5253 128.639 15.9936C129.276 16.4564 129.66 17.0717 129.791 17.8395H129.922C130.134 17.0717 130.586 16.4564 131.278 15.9936C131.969 15.5253 132.78 15.2912 133.711 15.2912C134.915 15.2912 135.89 15.6778 136.635 16.451C137.387 17.2242 137.763 18.2533 137.763 19.5384V28H133.254V20.6818C133.254 20.1319 133.115 19.7017 132.838 19.3913C132.56 19.0755 132.187 18.9176 131.719 18.9176C131.256 18.9176 130.888 19.0755 130.616 19.3913C130.349 19.7017 130.216 20.1319 130.216 20.6818V28H125.903V20.6818C125.903 20.1319 125.764 19.7017 125.487 19.3913C125.209 19.0755 124.836 18.9176 124.368 18.9176C124.057 18.9176 123.791 18.9884 123.567 19.13C123.344 19.2715 123.17 19.4757 123.045 19.7425C122.925 20.0039 122.865 20.317 122.865 20.6818V28H118.356ZM139.986 28V15.4545H144.495V28H139.986ZM142.241 14.1477C141.631 14.1477 141.108 13.9463 140.672 13.5433C140.237 13.1404 140.019 12.6558 140.019 12.0895C140.019 11.5232 140.237 11.0386 140.672 10.6357C141.108 10.2327 141.631 10.0312 142.241 10.0312C142.856 10.0312 143.379 10.2327 143.809 10.6357C144.244 11.0386 144.462 11.5232 144.462 12.0895C144.462 12.6558 144.244 13.1404 143.809 13.5433C143.379 13.9463 142.856 14.1477 142.241 14.1477ZM152.836 32.9659C151.578 32.9659 150.5 32.7862 149.602 32.4268C148.709 32.0729 148.014 31.5829 147.519 30.9567C147.029 30.3359 146.754 29.6226 146.694 28.8168H151.039C151.083 29.0836 151.192 29.2987 151.366 29.462C151.54 29.6254 151.763 29.7424 152.036 29.8132C152.313 29.8894 152.624 29.9276 152.967 29.9276C153.549 29.9276 154.031 29.786 154.412 29.5028C154.799 29.2197 154.992 28.7079 154.992 27.9673V25.8438H154.862C154.698 26.2685 154.448 26.6306 154.11 26.93C153.772 27.2241 153.367 27.45 152.893 27.608C152.419 27.7604 151.899 27.8366 151.333 27.8366C150.44 27.8366 149.618 27.6297 148.866 27.2159C148.121 26.8021 147.522 26.146 147.07 25.2475C146.623 24.3491 146.4 23.1757 146.4 21.7273C146.4 20.2135 146.634 18.983 147.102 18.0355C147.576 17.0881 148.186 16.3938 148.932 15.9528C149.683 15.5117 150.473 15.2912 151.3 15.2912C151.921 15.2912 152.466 15.4001 152.934 15.6179C153.402 15.8303 153.794 16.1161 154.11 16.4755C154.426 16.8294 154.665 17.2187 154.829 17.6435H154.927V15.4545H159.435V27.9673C159.435 29.0291 159.16 29.9303 158.61 30.6708C158.066 31.4168 157.298 31.9858 156.307 32.3778C155.316 32.7699 154.159 32.9659 152.836 32.9659ZM152.999 24.6349C153.413 24.6349 153.767 24.5206 154.061 24.2919C154.361 24.0578 154.589 23.7256 154.747 23.2955C154.911 22.8598 154.992 22.3371 154.992 21.7273C154.992 21.1065 154.911 20.5756 154.747 20.1346C154.589 19.6881 154.361 19.3478 154.061 19.1136C153.767 18.8741 153.413 18.7543 152.999 18.7543C152.585 18.7543 152.232 18.8741 151.938 19.1136C151.649 19.3478 151.426 19.6881 151.268 20.1346C151.115 20.5756 151.039 21.1065 151.039 21.7273C151.039 22.348 151.115 22.8762 151.268 23.3118C151.426 23.742 151.649 24.0714 151.938 24.3001C152.232 24.5233 152.585 24.6349 152.999 24.6349ZM161.728 28V15.4545H166.106V17.8395H166.237C166.466 16.9574 166.828 16.3121 167.323 15.9038C167.824 15.4954 168.41 15.2912 169.079 15.2912C169.275 15.2912 169.469 15.3075 169.659 15.3402C169.855 15.3674 170.043 15.4083 170.223 15.4627V19.3097C169.999 19.2334 169.725 19.1763 169.398 19.1381C169.071 19.1 168.791 19.081 168.557 19.081C168.116 19.081 167.718 19.1817 167.364 19.3832C167.016 19.5792 166.741 19.8569 166.539 20.2163C166.338 20.5702 166.237 20.9867 166.237 21.4659V28H161.728ZM174.613 28.196C173.812 28.196 173.105 28.0653 172.489 27.804C171.879 27.5372 171.4 27.1342 171.052 26.5952C170.703 26.0561 170.529 25.37 170.529 24.5369C170.529 23.8509 170.646 23.2655 170.88 22.7809C171.114 22.2908 171.441 21.8906 171.86 21.5803C172.28 21.2699 172.767 21.033 173.322 20.8697C173.883 20.7063 174.488 20.6001 175.136 20.5511C175.838 20.4967 176.402 20.4313 176.826 20.3551C177.256 20.2734 177.567 20.1618 177.757 20.0202C177.948 19.8732 178.043 19.6799 178.043 19.4403V19.4077C178.043 19.081 177.918 18.8305 177.668 18.6562C177.417 18.482 177.096 18.3949 176.704 18.3949C176.274 18.3949 175.922 18.4902 175.65 18.6808C175.383 18.8659 175.223 19.1518 175.168 19.5384H171.019C171.074 18.776 171.316 18.0736 171.746 17.4311C172.182 16.7831 172.816 16.2659 173.649 15.8793C174.482 15.4872 175.522 15.2912 176.769 15.2912C177.668 15.2912 178.473 15.3974 179.187 15.6097C179.9 15.8166 180.507 16.108 181.008 16.4837C181.509 16.8539 181.89 17.2895 182.152 17.7905C182.418 18.286 182.552 18.825 182.552 19.4077V28H178.337V26.2358H178.239C177.989 26.7041 177.684 27.0825 177.324 27.3711C176.971 27.6597 176.565 27.8693 176.108 28C175.656 28.1307 175.157 28.196 174.613 28.196ZM176.083 25.3537C176.426 25.3537 176.747 25.2829 177.047 25.1413C177.352 24.9998 177.599 24.7956 177.79 24.5288C177.981 24.262 178.076 23.938 178.076 23.5568V22.5114C177.956 22.5604 177.828 22.6067 177.692 22.6502C177.561 22.6938 177.42 22.7346 177.267 22.7727C177.12 22.8108 176.962 22.8462 176.794 22.8789C176.63 22.9116 176.459 22.9415 176.279 22.9688C175.931 23.0232 175.645 23.113 175.421 23.2383C175.204 23.3581 175.04 23.5078 174.931 23.6875C174.828 23.8617 174.776 24.0578 174.776 24.2756C174.776 24.6241 174.899 24.8909 175.144 25.076C175.389 25.2611 175.702 25.3537 176.083 25.3537ZM192.188 15.4545V18.7216H183.922V15.4545H192.188ZM185.523 12.4489H190.031V23.9652C190.031 24.1394 190.061 24.2865 190.121 24.4062C190.181 24.5206 190.274 24.6077 190.399 24.6676C190.524 24.7221 190.685 24.7493 190.881 24.7493C191.017 24.7493 191.175 24.733 191.354 24.7003C191.54 24.6676 191.676 24.6404 191.763 24.6186L192.416 27.7876C192.215 27.8475 191.926 27.921 191.55 28.0082C191.18 28.0953 190.739 28.1525 190.227 28.1797C189.193 28.2341 188.324 28.128 187.622 27.8612C186.919 27.5889 186.391 27.1615 186.037 26.5788C185.683 25.9962 185.512 25.2666 185.523 24.3899V12.4489ZM194.027 28V15.4545H198.536V28H194.027ZM196.282 14.1477C195.672 14.1477 195.149 13.9463 194.713 13.5433C194.278 13.1404 194.06 12.6558 194.06 12.0895C194.06 11.5232 194.278 11.0386 194.713 10.6357C195.149 10.2327 195.672 10.0312 196.282 10.0312C196.897 10.0312 197.42 10.2327 197.85 10.6357C198.285 11.0386 198.503 11.5232 198.503 12.0895C198.503 12.6558 198.285 13.1404 197.85 13.5433C197.42 13.9463 196.897 14.1477 196.282 14.1477ZM206.877 28.2287C205.516 28.2287 204.35 27.9592 203.381 27.4201C202.412 26.8756 201.669 26.1187 201.151 25.1495C200.634 24.1748 200.376 23.045 200.376 21.7599C200.376 20.4749 200.634 19.3478 201.151 18.3786C201.669 17.4039 202.412 16.647 203.381 16.108C204.35 15.5634 205.516 15.2912 206.877 15.2912C208.238 15.2912 209.403 15.5634 210.373 16.108C211.342 16.647 212.085 17.4039 212.602 18.3786C213.12 19.3478 213.378 20.4749 213.378 21.7599C213.378 23.045 213.12 24.1748 212.602 25.1495C212.085 26.1187 211.342 26.8756 210.373 27.4201C209.403 27.9592 208.238 28.2287 206.877 28.2287ZM206.91 24.8963C207.291 24.8963 207.62 24.7683 207.898 24.5124C208.176 24.2565 208.391 23.8917 208.543 23.418C208.696 22.9442 208.772 22.3807 208.772 21.7273C208.772 21.0684 208.696 20.5049 208.543 20.0366C208.391 19.5629 208.176 19.198 207.898 18.9421C207.62 18.6862 207.291 18.5582 206.91 18.5582C206.507 18.5582 206.161 18.6862 205.872 18.9421C205.584 19.198 205.363 19.5629 205.211 20.0366C205.058 20.5049 204.982 21.0684 204.982 21.7273C204.982 22.3807 205.058 22.9442 205.211 23.418C205.363 23.8917 205.584 24.2565 205.872 24.5124C206.161 24.7683 206.507 24.8963 206.91 24.8963ZM219.716 20.9432V28H215.208V15.4545H219.488V17.8395H219.618C219.891 17.0445 220.37 16.421 221.056 15.9691C221.747 15.5172 222.553 15.2912 223.474 15.2912C224.361 15.2912 225.132 15.4954 225.785 15.9038C226.444 16.3067 226.953 16.8621 227.312 17.57C227.677 18.2778 227.857 19.0864 227.851 19.9957V28H223.343V20.9432C223.348 20.3224 223.19 19.8351 222.869 19.4812C222.553 19.1272 222.112 18.9503 221.546 18.9503C221.176 18.9503 220.852 19.032 220.574 19.1953C220.302 19.3532 220.092 19.5819 219.945 19.8814C219.798 20.1754 219.722 20.5294 219.716 20.9432Z" fill="#FED136"/>
</g>
<defs>
<clipPath id="clip0_2243_66">
<rect width="229" height="40" fill="white"/>
</clipPath>
</defs>
</svg>
